# Blender v2.91.2 OBJ File: ''
# www.blender.org
mtllib screen2.mtl
o Plane
v 0.000000 0.000000 -1.054475
v 0.000000 0.500000 -0.922644
v 0.000000 -0.500000 -0.922643
v -0.500000 0.000000 -0.922643
v 0.500000 0.000000 -0.922644
v 0.500000 -0.500000 -0.773881
v -0.500000 -0.500000 -0.773881
v -0.500000 0.500000 -0.773881
v 0.500000 0.500000 -0.773881
v 0.000000 0.750000 -0.740297
v 0.000000 -0.250000 -1.020781
v -0.750000 0.000000 -0.740296
v 0.250000 0.000000 -1.020781
v 0.000000 0.250000 -1.020781
v 0.000000 -0.750000 -0.740297
v -0.250000 0.000000 -1.020780
v 0.750000 0.000000 -0.740297
v 0.500000 -0.250000 -0.884622
v 0.500000 -0.750000 -0.542730
v 0.250000 -0.500000 -0.883681
v 0.750000 -0.500000 -0.533491
v -0.500000 -0.250000 -0.884621
v -0.500000 -0.750000 -0.542729
v -0.750000 -0.500000 -0.533490
v -0.250000 -0.500000 -0.883680
v -0.500000 0.750000 -0.542729
v -0.500000 0.250000 -0.884621
v -0.750000 0.500000 -0.533490
v -0.250000 0.500000 -0.883680
v 0.500000 0.750000 -0.542730
v 0.500000 0.250000 -0.884622
v 0.250000 0.500000 -0.883680
v 0.750000 0.500000 -0.533491
v 0.750000 0.250000 -0.687440
v 0.250000 0.250000 -0.985740
v 0.250000 0.750000 -0.694046
v -0.250000 0.250000 -0.985739
v -0.750000 0.250000 -0.687439
v -0.750000 0.750000 0.000000
v -0.250000 -0.750000 -0.694046
v -0.750000 -0.750000 -0.000000
v -0.750000 -0.250000 -0.687439
v 0.750000 -0.750000 -0.000000
v 0.250000 -0.750000 -0.694047
v 0.250000 -0.250000 -0.985740
v 0.750000 -0.250000 -0.687440
v -0.250000 -0.250000 -0.985739
v -0.250000 0.750000 -0.694046
v 0.750000 0.750000 0.000000
v 0.000000 -0.125000 -1.042163
v 0.125000 0.000000 -1.042163
v 0.000000 0.375000 -0.982862
v 0.000000 -0.625000 -0.844621
v -0.375000 0.000000 -0.982862
v 0.625000 0.000000 -0.844622
v 0.500000 -0.125000 -0.908751
v 0.500000 -0.625000 -0.677039
v 0.125000 -0.500000 -0.910332
v 0.625000 -0.500000 -0.674900
v -0.500000 -0.125000 -0.908750
v -0.500000 -0.625000 -0.677038
v -0.375000 -0.500000 -0.840695
v -0.500000 0.375000 -0.841833
v -0.375000 0.500000 -0.840694
v 0.500000 0.375000 -0.841834
v 0.125000 0.500000 -0.910332
v 0.625000 0.500000 -0.674900
v 0.000000 0.625000 -0.844622
v 0.000000 -0.375000 -0.982862
v -0.625000 0.000000 -0.844621
v 0.375000 0.000000 -0.982862
v 0.000000 0.125000 -1.042163
v -0.125000 0.000000 -1.042163
v 0.500000 -0.375000 -0.841834
v 0.375000 -0.500000 -0.840695
v -0.500000 -0.375000 -0.841833
v -0.625000 -0.500000 -0.674900
v -0.125000 -0.500000 -0.910331
v -0.500000 0.625000 -0.677038
v -0.500000 0.125000 -0.908750
v -0.625000 0.500000 -0.674900
v -0.125000 0.500000 -0.910332
v 0.500000 0.625000 -0.677039
v 0.500000 0.125000 -0.908751
v 0.375000 0.500000 -0.840695
v 0.750000 0.375000 -0.627957
v 0.750000 0.125000 -0.720984
v 0.625000 0.250000 -0.801243
v 0.250000 0.375000 -0.946306
v 0.250000 0.125000 -1.007977
v 0.125000 0.250000 -1.008469
v 0.375000 0.250000 -0.947821
v 0.250000 0.625000 -0.802541
v 0.125000 0.750000 -0.727986
v 0.375000 0.750000 -0.634930
v -0.250000 0.375000 -0.946305
v -0.250000 0.125000 -1.007976
v -0.375000 0.250000 -0.947821
v -0.125000 0.250000 -1.008469
v -0.750000 0.375000 -0.627956
v -0.750000 0.125000 -0.720983
v -0.625000 0.250000 -0.801242
v -0.750000 0.625000 -0.379963
v -0.625000 0.750000 -0.393578
v -0.250000 -0.625000 -0.802540
v -0.375000 -0.750000 -0.634930
v -0.125000 -0.750000 -0.727985
v -0.750000 -0.625000 -0.379963
v -0.625000 -0.750000 -0.393578
v -0.750000 -0.125000 -0.720983
v -0.750000 -0.375000 -0.627956
v -0.625000 -0.250000 -0.801242
v 0.750000 -0.625000 -0.379964
v 0.625000 -0.750000 -0.393579
v 0.250000 -0.625000 -0.802541
v 0.125000 -0.750000 -0.727986
v 0.375000 -0.750000 -0.634930
v 0.250000 -0.125000 -1.007977
v 0.250000 -0.375000 -0.946306
v 0.125000 -0.250000 -1.008469
v 0.375000 -0.250000 -0.947821
v 0.750000 -0.125000 -0.720984
v 0.750000 -0.375000 -0.627957
v 0.625000 -0.250000 -0.801243
v -0.250000 -0.125000 -1.007976
v -0.250000 -0.375000 -0.946305
v -0.375000 -0.250000 -0.947821
v -0.125000 -0.250000 -1.008469
v -0.250000 0.625000 -0.802540
v -0.375000 0.750000 -0.634930
v -0.125000 0.750000 -0.727985
v 0.750000 0.625000 -0.379964
v 0.625000 0.750000 -0.393579
v 0.625000 0.625000 -0.563410
v -0.125000 0.625000 -0.832310
v -0.375000 0.625000 -0.752653
v -0.125000 -0.375000 -0.970550
v -0.375000 -0.375000 -0.908387
v -0.375000 -0.125000 -0.970058
v 0.625000 -0.375000 -0.752427
v 0.625000 -0.125000 -0.828772
v 0.375000 -0.375000 -0.908388
v 0.125000 -0.375000 -0.970551
v 0.125000 -0.125000 -1.029852
v 0.125000 -0.625000 -0.832310
v 0.625000 -0.625000 -0.563410
v -0.625000 -0.375000 -0.752426
v -0.375000 -0.625000 -0.752653
v -0.625000 0.625000 -0.563409
v -0.625000 0.125000 -0.828771
v -0.125000 0.125000 -1.029852
v -0.375000 0.125000 -0.970058
v -0.375000 0.375000 -0.908387
v 0.375000 0.625000 -0.752653
v 0.125000 0.625000 -0.832310
v 0.375000 0.125000 -0.970059
v 0.125000 0.125000 -1.029852
v 0.125000 0.375000 -0.970551
v 0.625000 0.125000 -0.828772
v 0.625000 0.375000 -0.752427
v 0.375000 0.375000 -0.908388
v -0.125000 0.375000 -0.970550
v -0.625000 0.375000 -0.752426
v -0.125000 -0.625000 -0.832310
v -0.625000 -0.625000 -0.563409
v -0.625000 -0.125000 -0.828771
v 0.375000 -0.625000 -0.752653
v 0.375000 -0.125000 -0.970059
v -0.125000 -0.125000 -1.029852
vt 0.708333 0.416667
vt 0.750000 0.416667
vt 0.750000 0.500000
vt 0.708333 0.500000
vt 0.875000 0.416667
vt 0.916667 0.416667
vt 0.916667 0.500000
vt 0.875000 0.500000
vt 0.875000 0.083333
vt 0.916667 0.083333
vt 0.916667 0.166667
vt 0.875000 0.166667
vt 0.541667 0.416667
vt 0.583333 0.416667
vt 0.583333 0.500000
vt 0.541667 0.500000
vt 0.541667 0.083333
vt 0.583333 0.083333
vt 0.583333 0.166667
vt 0.541667 0.166667
vt 0.708333 0.083333
vt 0.750000 0.083333
vt 0.750000 0.166667
vt 0.708333 0.166667
vt 0.541667 0.750000
vt 0.583333 0.750000
vt 0.583333 0.833333
vt 0.541667 0.833333
vt 0.708333 0.750000
vt 0.750000 0.750000
vt 0.750000 0.833333
vt 0.708333 0.833333
vt 0.875000 0.750000
vt 0.916667 0.750000
vt 0.916667 0.833333
vt 0.875000 0.833333
vt 0.958333 0.750000
vt 1.000000 0.750000
vt 1.000000 0.833333
vt 0.958333 0.833333
vt 0.958333 0.583333
vt 1.000000 0.583333
vt 1.000000 0.666667
vt 0.958333 0.666667
vt 0.791667 0.750000
vt 0.833333 0.750000
vt 0.833333 0.833333
vt 0.791667 0.833333
vt 0.791667 0.583333
vt 0.833333 0.583333
vt 0.833333 0.666667
vt 0.791667 0.666667
vt 0.875000 0.583333
vt 0.916667 0.583333
vt 0.916667 0.666667
vt 0.875000 0.666667
vt 0.791667 0.916667
vt 0.833333 0.916667
vt 0.833333 1.000000
vt 0.791667 1.000000
vt 0.875000 0.916667
vt 0.916667 0.916667
vt 0.916667 1.000000
vt 0.875000 1.000000
vt 0.625000 0.750000
vt 0.666667 0.750000
vt 0.666667 0.833333
vt 0.625000 0.833333
vt 0.625000 0.583333
vt 0.666667 0.583333
vt 0.666667 0.666667
vt 0.625000 0.666667
vt 0.708333 0.583333
vt 0.750000 0.583333
vt 0.750000 0.666667
vt 0.708333 0.666667
vt 0.541667 0.583333
vt 0.583333 0.583333
vt 0.583333 0.666667
vt 0.541667 0.666667
vt 0.541667 0.916667
vt 0.583333 0.916667
vt 0.583333 1.000000
vt 0.541667 1.000000
vt 0.625000 0.083333
vt 0.666667 0.083333
vt 0.666667 0.166667
vt 0.625000 0.166667
vt 0.541667 0.250000
vt 0.583333 0.250000
vt 0.583333 0.333333
vt 0.541667 0.333333
vt 0.958333 0.083333
vt 1.000000 0.083333
vt 1.000000 0.166667
vt 0.958333 0.166667
vt 0.791667 0.083333
vt 0.833333 0.083333
vt 0.833333 0.166667
vt 0.791667 0.166667
vt 0.791667 0.416667
vt 0.833333 0.416667
vt 0.833333 0.500000
vt 0.791667 0.500000
vt 0.791667 0.250000
vt 0.833333 0.250000
vt 0.833333 0.333333
vt 0.791667 0.333333
vt 0.875000 0.250000
vt 0.916667 0.250000
vt 0.916667 0.333333
vt 0.875000 0.333333
vt 0.958333 0.416667
vt 1.000000 0.416667
vt 1.000000 0.500000
vt 0.958333 0.500000
vt 0.958333 0.250000
vt 1.000000 0.250000
vt 1.000000 0.333333
vt 0.958333 0.333333
vt 0.625000 0.416667
vt 0.666667 0.416667
vt 0.666667 0.500000
vt 0.625000 0.500000
vt 0.625000 0.250000
vt 0.666667 0.250000
vt 0.666667 0.333333
vt 0.625000 0.333333
vt 0.708333 0.250000
vt 0.750000 0.250000
vt 0.750000 0.333333
vt 0.708333 0.333333
vt 0.625000 0.916667
vt 0.666667 0.916667
vt 0.666667 1.000000
vt 0.625000 1.000000
vt 0.708333 0.916667
vt 0.750000 0.916667
vt 0.750000 1.000000
vt 0.708333 1.000000
vt 0.958333 0.916667
vt 1.000000 0.916667
vt 1.000000 1.000000
vt 0.958333 1.000000
vt 0.750000 0.000000
vt 0.791667 0.000000
vt 0.833333 0.000000
vt 0.916667 0.000000
vt 0.958333 0.000000
vt 1.000000 0.000000
vt 0.500000 0.250000
vt 0.500000 0.333333
vt 0.500000 0.166667
vt 0.583333 0.000000
vt 0.625000 0.000000
vt 0.666667 0.000000
vt 0.500000 0.916667
vt 0.500000 1.000000
vt 0.500000 0.833333
vt 0.500000 0.583333
vt 0.500000 0.666667
vt 0.500000 0.500000
vt 0.500000 0.750000
vt 0.708333 0.000000
vt 0.500000 0.083333
vt 0.500000 0.000000
vt 0.541667 0.000000
vt 0.500000 0.416667
vt 0.875000 0.000000
vn 0.1343 0.1333 0.9819
vn 0.0000 0.1331 0.9911
vn 0.0000 0.0000 1.0000
vn 0.1340 0.0000 0.9910
vn -0.3632 0.1315 0.9224
vn -0.4868 0.1325 0.8634
vn -0.4848 0.0000 0.8746
vn -0.3631 0.0000 0.9317
vn -0.3619 0.5901 0.7216
vn -0.4874 0.5911 0.6426
vn -0.4838 0.4830 0.7298
vn -0.3542 0.4884 0.7975
vn 0.5924 0.1393 0.7935
vn 0.4868 0.1325 0.8634
vn 0.4848 0.0000 0.8746
vn 0.5893 0.0000 0.8079
vn 0.6149 0.5961 0.5162
vn 0.4874 0.5911 0.6426
vn 0.4838 0.4830 0.7298
vn 0.6052 0.4824 0.6332
vn 0.1341 0.5835 0.8009
vn 0.0000 0.5845 0.8114
vn 0.0000 0.4810 0.8767
vn 0.1346 0.4808 0.8664
vn 0.6030 -0.3597 0.7120
vn 0.4896 -0.3569 0.7955
vn 0.4838 -0.4830 0.7298
vn 0.6052 -0.4824 0.6332
vn 0.1348 -0.3622 0.9223
vn 0.0000 -0.3616 0.9323
vn 0.0000 -0.4810 0.8767
vn 0.1346 -0.4808 0.8664
vn -0.3564 -0.3623 0.8612
vn -0.4896 -0.3569 0.7955
vn -0.4838 -0.4830 0.7298
vn -0.3542 -0.4884 0.7975
vn -0.6030 -0.3597 0.7120
vn -0.6604 -0.3782 0.6487
vn -0.6652 -0.5053 0.5497
vn -0.6052 -0.4824 0.6332
vn -0.5924 -0.1393 0.7935
vn -0.6487 -0.1464 0.7468
vn -0.6571 -0.2486 0.7116
vn -0.5995 -0.2347 0.7651
vn -0.1348 -0.3622 0.9223
vn -0.2281 -0.3651 0.9026
vn -0.2340 -0.4859 0.8421
vn -0.1346 -0.4808 0.8664
vn -0.1343 -0.1333 0.9819
vn -0.2297 -0.1334 0.9640
vn -0.2289 -0.2295 0.9460
vn -0.1352 -0.2295 0.9639
vn -0.3632 -0.1315 0.9224
vn -0.4868 -0.1325 0.8634
vn -0.4919 -0.2259 0.8408
vn -0.3622 -0.2258 0.9043
vn -0.1341 -0.5835 0.8009
vn -0.2447 -0.5855 0.7728
vn -0.2578 -0.6387 0.7249
vn -0.1373 -0.6386 0.7572
vn -0.3619 -0.5901 0.7216
vn -0.4874 -0.5911 0.6426
vn -0.5132 -0.6443 0.5669
vn -0.3815 -0.6420 0.6651
vn 0.3564 -0.3623 0.8612
vn 0.2281 -0.3651 0.9026
vn 0.2340 -0.4859 0.8421
vn 0.3542 -0.4884 0.7975
vn 0.3632 -0.1315 0.9224
vn 0.2297 -0.1334 0.9640
vn 0.2289 -0.2295 0.9460
vn 0.3622 -0.2258 0.9043
vn 0.1343 -0.1333 0.9819
vn 0.0000 -0.1331 0.9911
vn 0.0000 -0.2290 0.9734
vn 0.1352 -0.2295 0.9639
vn 0.5924 -0.1393 0.7935
vn 0.4868 -0.1325 0.8634
vn 0.4919 -0.2259 0.8408
vn 0.5995 -0.2347 0.7651
vn 0.6149 -0.5961 0.5162
vn 0.4874 -0.5911 0.6426
vn 0.5132 -0.6443 0.5669
vn 0.6588 -0.6586 0.3637
vn 0.3619 0.5901 0.7216
vn 0.2447 0.5855 0.7728
vn 0.2340 0.4859 0.8421
vn 0.3542 0.4884 0.7975
vn 0.6030 0.3597 0.7120
vn 0.4896 0.3569 0.7955
vn 0.4919 0.2259 0.8408
vn 0.5995 0.2347 0.7651
vn -0.6149 0.5961 0.5162
vn -0.6881 0.6317 0.3570
vn -0.6652 0.5053 0.5497
vn -0.6052 0.4824 0.6332
vn -0.1341 0.5835 0.8009
vn -0.2447 0.5855 0.7728
vn -0.2340 0.4859 0.8421
vn -0.1346 0.4808 0.8664
vn -0.1343 0.1333 0.9819
vn -0.2297 0.1334 0.9640
vn -0.2299 0.0000 0.9732
vn -0.1340 0.0000 0.9910
vn -0.1348 0.3622 0.9223
vn -0.2281 0.3651 0.9026
vn -0.2289 0.2295 0.9460
vn -0.1352 0.2295 0.9639
vn -0.3564 0.3623 0.8612
vn -0.4896 0.3569 0.7955
vn -0.4919 0.2259 0.8408
vn -0.3622 0.2258 0.9043
vn -0.5924 0.1393 0.7935
vn -0.6487 0.1464 0.7468
vn -0.6470 0.0000 0.7625
vn -0.5893 0.0000 0.8079
vn -0.6030 0.3597 0.7120
vn -0.6604 0.3782 0.6487
vn -0.6571 0.2486 0.7116
vn -0.5995 0.2347 0.7651
vn 0.3632 0.1315 0.9224
vn 0.2297 0.1334 0.9640
vn 0.2299 0.0000 0.9732
vn 0.3631 0.0000 0.9317
vn 0.3564 0.3623 0.8612
vn 0.2281 0.3651 0.9026
vn 0.2289 0.2295 0.9460
vn 0.3622 0.2258 0.9043
vn 0.1348 0.3622 0.9223
vn 0.0000 0.3616 0.9323
vn 0.0000 0.2290 0.9734
vn 0.1352 0.2295 0.9639
vn 0.3619 -0.5901 0.7216
vn 0.2447 -0.5855 0.7728
vn 0.2578 -0.6387 0.7249
vn 0.3815 -0.6420 0.6651
vn 0.1341 -0.5835 0.8009
vn 0.0000 -0.5845 0.8114
vn 0.0000 -0.6407 0.7677
vn 0.1373 -0.6386 0.7572
vn -0.6149 -0.5961 0.5162
vn -0.6881 -0.6317 0.3570
vn -0.6908 -0.6582 0.2993
vn -0.6588 -0.6586 0.3637
vn 0.0000 0.6407 0.7677
vn -0.1373 0.6386 0.7572
vn -0.2578 0.6387 0.7249
vn -0.5132 0.6443 0.5669
vn -0.6588 0.6586 0.3637
vn -0.6908 0.6582 0.2993
vn 0.6604 0.3782 0.6487
vn 0.6571 0.2486 0.7116
vn 0.6652 0.5053 0.5497
vn 0.5132 0.6443 0.5669
vn 0.3815 0.6420 0.6651
vn 0.2578 0.6387 0.7249
vn 0.6881 -0.6317 0.3570
vn 0.6908 -0.6582 0.2993
vn 0.6652 -0.5053 0.5497
vn 0.6487 -0.1464 0.7468
vn 0.6571 -0.2486 0.7116
vn 0.6470 0.0000 0.7625
vn 0.6604 -0.3782 0.6487
vn 0.1373 0.6386 0.7572
vn 0.6881 0.6317 0.3570
vn 0.6908 0.6582 0.2993
vn 0.6588 0.6586 0.3637
vn 0.6487 0.1464 0.7468
vn -0.3815 0.6420 0.6651
usemtl Image
s 1
f 169/1/1 50/2/2 1/3/3 73/4/4
f 168/5/5 56/6/6 5/7/7 71/8/8
f 167/9/9 57/10/10 6/11/11 75/12/12
f 166/13/13 60/14/14 4/15/15 70/16/16
f 165/17/17 61/18/18 7/19/19 77/20/20
f 164/21/21 53/22/22 3/23/23 78/24/24
f 163/25/25 63/26/26 8/27/27 81/28/28
f 162/29/29 52/30/30 2/31/31 82/32/32
f 161/33/33 65/34/34 9/35/35 85/36/36
f 160/37/37 86/38/38 33/39/39 67/40/40
f 159/41/41 87/42/42 34/43/43 88/44/44
f 158/45/45 89/46/46 32/47/47 66/48/48
f 157/49/49 90/50/50 35/51/51 91/52/52
f 156/53/53 84/54/54 31/55/55 92/56/56
f 155/57/57 93/58/58 36/59/59 94/60/60
f 154/61/61 83/62/62 30/63/63 95/64/64
f 153/65/65 96/66/66 29/67/67 64/68/68
f 152/69/69 97/70/70 37/71/71 98/72/72
f 151/73/73 72/74/74 14/75/75 99/76/76
f 150/77/77 80/78/78 27/79/79 102/80/80
f 149/81/81 79/82/82 26/83/83 104/84/84
f 148/85/85 105/86/86 25/87/87 62/88/88
f 147/89/89 76/90/90 22/91/91 112/92/92
f 146/93/93 113/94/94 21/95/95 59/96/96
f 145/97/97 115/98/98 20/99/99 58/100/100
f 144/101/101 118/102/102 13/103/103 51/104/104
f 143/105/105 119/106/106 45/107/107 120/108/108
f 142/109/109 74/110/110 18/111/111 121/112/112
f 141/113/113 122/114/114 17/115/115 55/116/116
f 140/117/117 123/118/118 46/119/119 124/120/120
f 139/121/121 125/122/122 16/123/123 54/124/124
f 138/125/125 126/126/126 47/127/127 127/128/128
f 137/129/129 69/130/130 11/131/131 128/132/132
f 136/133/133 129/134/134 48/135/135 130/136/136
f 135/137/137 68/138/138 10/139/139 131/140/140
f 134/141/141 132/142/142 49/143/143 133/144/144
f 83/62/62 134/141/141 133/144/144 30/63/63
f 9/35/35 67/40/40 134/141/141 83/62/62
f 67/40/40 33/39/39 132/142/142 134/141/141
f 129/134/134 135/137/137 131/140/140 48/135/135
f 29/67/67 82/32/32 135/137/137 129/134/134
f 82/32/32 2/31/31 68/138/138 135/137/137
f 79/82/82 136/133/133 130/136/136 26/83/83
f 8/27/27 64/68/68 136/133/133 79/82/82
f 64/68/68 29/67/67 129/134/134 136/133/133
f 126/126/126 137/129/129 128/132/132 47/127/127
f 25/87/87 78/24/24 137/129/129 126/126/126
f 78/24/24 3/23/23 69/130/130 137/129/129
f 76/90/90 138/125/125 127/128/128 22/91/91
f 7/19/19 62/88/88 138/125/125 76/90/90
f 62/88/88 25/87/87 126/126/126 138/125/125
f 60/14/14 139/121/121 54/124/124 4/15/15
f 22/91/91 127/128/128 139/121/121 60/14/14
f 127/128/128 47/127/127 125/122/122 139/121/121
f 74/110/110 140/117/117 124/120/120 18/111/111
f 6/11/11 59/96/96 140/117/117 74/110/110
f 59/96/96 21/95/95 123/118/118 140/117/117
f 56/6/6 141/113/113 55/116/116 5/7/7
f 18/111/111 124/120/120 141/113/113 56/6/6
f 124/120/120 46/119/119 122/114/114 141/113/113
f 119/106/106 142/109/109 121/112/112 45/107/107
f 20/99/99 75/12/12 142/109/109 119/106/106
f 75/12/12 6/11/11 74/110/110 142/109/109
f 69/130/130 143/105/105 120/108/108 11/131/131
f 3/23/23 58/100/100 143/105/105 69/130/130
f 58/100/100 20/99/99 119/106/106 143/105/105
f 50/2/2 144/101/101 51/104/104 1/3/3
f 11/131/131 120/108/108 144/101/101 50/2/2
f 120/108/108 45/107/107 118/102/102 144/101/101
f 53/22/22 145/97/97 58/100/100 3/23/23
f 15/145/145 116/146/146 145/97/97 53/22/22
f 116/146/146 44/147/147 115/98/98 145/97/97
f 57/10/10 146/93/93 59/96/96 6/11/11
f 19/148/148 114/149/149 146/93/93 57/10/10
f 114/149/149 43/150/150 113/94/94 146/93/93
f 111/151/151 147/89/89 112/92/92 42/152/152
f 24/153/153 77/20/20 147/89/89 111/151/151
f 77/20/20 7/19/19 76/90/90 147/89/89
f 61/18/18 148/85/85 62/88/88 7/19/19
f 23/154/154 106/155/155 148/85/85 61/18/18
f 106/155/155 40/156/156 105/86/86 148/85/85
f 103/157/157 149/81/81 104/84/84 39/158/158
f 28/159/159 81/28/28 149/81/81 103/157/157
f 81/28/28 8/27/27 79/82/82 149/81/81
f 101/160/160 150/77/77 102/80/80 38/161/161
f 12/162/162 70/16/16 150/77/77 101/160/160
f 70/16/16 4/15/15 80/78/78 150/77/77
f 97/70/70 151/73/73 99/76/76 37/71/71
f 16/123/123 73/4/4 151/73/73 97/70/70
f 73/4/4 1/3/3 72/74/74 151/73/73
f 80/78/78 152/69/69 98/72/72 27/79/79
f 4/15/15 54/124/124 152/69/69 80/78/78
f 54/124/124 16/123/123 97/70/70 152/69/69
f 63/26/26 153/65/65 64/68/68 8/27/27
f 27/79/79 98/72/72 153/65/65 63/26/26
f 98/72/72 37/71/71 96/66/66 153/65/65
f 93/58/58 154/61/61 95/64/64 36/59/59
f 32/47/47 85/36/36 154/61/61 93/58/58
f 85/36/36 9/35/35 83/62/62 154/61/61
f 68/138/138 155/57/57 94/60/60 10/139/139
f 2/31/31 66/48/48 155/57/57 68/138/138
f 66/48/48 32/47/47 93/58/58 155/57/57
f 90/50/50 156/53/53 92/56/56 35/51/51
f 13/103/103 71/8/8 156/53/53 90/50/50
f 71/8/8 5/7/7 84/54/54 156/53/53
f 72/74/74 157/49/49 91/52/52 14/75/75
f 1/3/3 51/104/104 157/49/49 72/74/74
f 51/104/104 13/103/103 90/50/50 157/49/49
f 52/30/30 158/45/45 66/48/48 2/31/31
f 14/75/75 91/52/52 158/45/45 52/30/30
f 91/52/52 35/51/51 89/46/46 158/45/45
f 84/54/54 159/41/41 88/44/44 31/55/55
f 5/7/7 55/116/116 159/41/41 84/54/54
f 55/116/116 17/115/115 87/42/42 159/41/41
f 65/34/34 160/37/37 67/40/40 9/35/35
f 31/55/55 88/44/44 160/37/37 65/34/34
f 88/44/44 34/43/43 86/38/38 160/37/37
f 89/46/46 161/33/33 85/36/36 32/47/47
f 35/51/51 92/56/56 161/33/33 89/46/46
f 92/56/56 31/55/55 65/34/34 161/33/33
f 96/66/66 162/29/29 82/32/32 29/67/67
f 37/71/71 99/76/76 162/29/29 96/66/66
f 99/76/76 14/75/75 52/30/30 162/29/29
f 100/163/163 163/25/25 81/28/28 28/159/159
f 38/161/161 102/80/80 163/25/25 100/163/163
f 102/80/80 27/79/79 63/26/26 163/25/25
f 105/86/86 164/21/21 78/24/24 25/87/87
f 40/156/156 107/164/164 164/21/21 105/86/86
f 107/164/164 15/145/145 53/22/22 164/21/21
f 108/165/165 165/17/17 77/20/20 24/153/153
f 41/166/166 109/167/167 165/17/17 108/165/165
f 109/167/167 23/154/154 61/18/18 165/17/17
f 110/168/168 166/13/13 70/16/16 12/162/162
f 42/152/152 112/92/92 166/13/13 110/168/168
f 112/92/92 22/91/91 60/14/14 166/13/13
f 115/98/98 167/9/9 75/12/12 20/99/99
f 44/147/147 117/169/169 167/9/9 115/98/98
f 117/169/169 19/148/148 57/10/10 167/9/9
f 118/102/102 168/5/5 71/8/8 13/103/103
f 45/107/107 121/112/112 168/5/5 118/102/102
f 121/112/112 18/111/111 56/6/6 168/5/5
f 125/122/122 169/1/1 73/4/4 16/123/123
f 47/127/127 128/132/132 169/1/1 125/122/122
f 128/132/132 11/131/131 50/2/2 169/1/1
